<svg width="92" height="24" viewBox="0 0 92 24" fill="none" xmlns="http://www.w3.org/2000/svg">
<path d="M14.6466 12.088C16.2426 13.068 17.2786 15.028 17.2786 17.044C17.2786 21.216 14.4226 23.848 9.38256 23.848C4.00656 23.848 0.702563 21.888 0.702563 17.044C0.702563 15.336 1.54256 13.32 2.71856 12.396C3.69856 13.04 4.93056 13.46 6.02256 13.656L6.21856 13.012C3.92256 12.704 1.26256 10.856 1.26256 7.188C1.26256 3.744 4.62256 0.943999 8.82256 0.943999C13.4706 0.943999 16.9706 3.492 16.9706 7.468C16.9706 9.176 16.1306 11.108 14.6466 12.088ZM7.08656 6.012L6.58256 6.768C8.17856 7.496 9.99856 7.776 11.1746 7.748V6.908C10.2226 6.936 8.29056 6.6 7.08656 6.012ZM6.24656 16.372L5.74256 17.128C7.87056 18.136 10.9786 18.388 12.5746 18.388V17.548C11.0906 17.548 8.17856 17.212 6.24656 16.372ZM28.3913 23.26H18.8713V1.364H28.3913V23.26ZM29.8223 18.64C29.8223 15.728 30.9143 14.272 33.3783 13.404C35.2263 12.76 38.3343 12.312 40.7703 12.312V11.416C37.9423 11.416 34.4703 11.92 31.2783 13.012V7.188C33.6583 6.124 36.5143 5.592 40.4343 5.592C46.2303 5.592 48.5543 7.552 48.5543 13.32V23.26H41.5543V22.308C41.5543 20.124 40.8823 17.996 39.9583 16.68L39.1183 16.988C40.0703 18.08 40.6583 20.74 40.6583 22.784C39.2023 23.316 37.4103 23.68 35.0023 23.68C31.5583 23.68 29.8223 21.664 29.8223 18.64ZM49.7013 14.776C49.7013 9.148 53.4813 5.592 60.1173 5.592C63.5893 5.592 66.5853 6.264 68.7133 7.692V14.384C65.0453 14.384 61.4613 14.132 57.9893 13.432V14.412C61.2093 15.196 65.2973 15.364 68.7133 15.364V21.188C66.2213 23.148 63.1413 23.708 59.1653 23.708C53.4813 23.708 49.7013 20.432 49.7013 14.776ZM79.7975 23.26H70.2775V1.364H79.7975V9.652L78.2575 13.516L79.0135 13.712L82.0375 6.152H91.5015L87.3295 14.692L91.5015 23.26H81.7015L79.7975 19.256V23.26Z" fill="black"/>
</svg>
