<svg width="72" height="83" viewBox="0 0 72 83" fill="none" xmlns="http://www.w3.org/2000/svg">
<g filter="url(#filter0_d_571_608)">
<mask id="path-1-outside-1_571_608" maskUnits="userSpaceOnUse" x="11" y="6.5" width="49" height="60" fill="black">
<rect fill="white" x="11" y="6.5" width="49" height="60"/>
<path d="M46.3887 35.6736C49.4201 37.535 51.3878 41.2577 51.3878 45.0868C51.3878 53.0109 45.9632 58.01 36.3905 58.01C26.1796 58.01 19.9041 54.2873 19.9041 45.0868C19.9041 41.8427 21.4996 38.0136 23.7332 36.2586C25.5946 37.4818 27.9346 38.2795 30.0087 38.6518L30.3809 37.4286C26.02 36.8436 20.9677 33.3336 20.9677 26.3668C20.9677 19.8254 27.3496 14.5072 35.3268 14.5072C44.155 14.5072 50.8028 19.3468 50.8028 26.8986C50.8028 30.1427 49.2073 33.8122 46.3887 35.6736ZM32.0296 24.1331L31.0723 25.569C34.1037 26.9518 37.5605 27.4836 39.7941 27.4304V25.8349C37.9859 25.8881 34.3164 25.2499 32.0296 24.1331ZM30.4341 43.8104L29.4768 45.2463C33.5187 47.1609 39.4219 47.6395 42.4532 47.6395V46.0441C39.6346 46.0441 34.1037 45.4059 30.4341 43.8104Z"/>
</mask>
<path d="M46.3887 35.6736C49.4201 37.535 51.3878 41.2577 51.3878 45.0868C51.3878 53.0109 45.9632 58.01 36.3905 58.01C26.1796 58.01 19.9041 54.2873 19.9041 45.0868C19.9041 41.8427 21.4996 38.0136 23.7332 36.2586C25.5946 37.4818 27.9346 38.2795 30.0087 38.6518L30.3809 37.4286C26.02 36.8436 20.9677 33.3336 20.9677 26.3668C20.9677 19.8254 27.3496 14.5072 35.3268 14.5072C44.155 14.5072 50.8028 19.3468 50.8028 26.8986C50.8028 30.1427 49.2073 33.8122 46.3887 35.6736ZM32.0296 24.1331L31.0723 25.569C34.1037 26.9518 37.5605 27.4836 39.7941 27.4304V25.8349C37.9859 25.8881 34.3164 25.2499 32.0296 24.1331ZM30.4341 43.8104L29.4768 45.2463C33.5187 47.1609 39.4219 47.6395 42.4532 47.6395V46.0441C39.6346 46.0441 34.1037 45.4059 30.4341 43.8104Z" fill="white"/>
<path d="M46.3887 35.6736L41.9802 28.9979L31.4997 35.919L42.2026 42.491L46.3887 35.6736ZM23.7332 36.2586L28.1266 29.573L23.3165 26.412L18.7906 29.9681L23.7332 36.2586ZM30.0087 38.6518L28.5953 46.526L35.5923 47.7818L37.662 40.9811L30.0087 38.6518ZM30.3809 37.4286L38.0343 39.7579L40.7754 30.7513L31.4446 29.4996L30.3809 37.4286ZM32.0296 24.1331L35.5403 16.9446L29.2539 13.8745L25.3732 19.6955L32.0296 24.1331ZM31.0723 25.569L24.4159 21.1314L19.2045 28.9486L27.7523 32.8476L31.0723 25.569ZM39.7941 27.4304L39.9846 35.4281L47.7941 35.2422V27.4304H39.7941ZM39.7941 25.8349H47.7941V17.5962L39.5589 17.8384L39.7941 25.8349ZM30.4341 43.8104L33.6239 36.4739L27.4887 33.8064L23.7777 39.3728L30.4341 43.8104ZM29.4768 45.2463L22.8204 40.8087L17.6845 48.5126L26.0521 52.4762L29.4768 45.2463ZM42.4532 47.6395V55.6395H50.4532V47.6395H42.4532ZM42.4532 46.0441H50.4532V38.0441H42.4532V46.0441ZM42.2026 42.491C42.6354 42.7567 43.3878 43.7591 43.3878 45.0868H59.3878C59.3878 38.7563 56.2047 32.3132 50.5748 28.8562L42.2026 42.491ZM43.3878 45.0868C43.3878 47.1244 42.7586 48.0187 42.202 48.5071C41.5156 49.1095 39.8548 50.01 36.3905 50.01V66.01C42.4989 66.01 48.3368 64.4109 52.7558 60.5328C57.3047 56.5406 59.3878 50.9733 59.3878 45.0868H43.3878ZM36.3905 50.01C32.019 50.01 29.9012 49.1705 29.0406 48.5411C28.6483 48.2542 27.9041 47.6643 27.9041 45.0868H11.9041C11.9041 51.7098 14.2977 57.5815 19.5958 61.456C24.4257 64.9882 30.5511 66.01 36.3905 66.01V50.01ZM27.9041 45.0868C27.9041 44.6861 28.025 43.9872 28.3342 43.2656C28.4772 42.9321 28.6212 42.6874 28.7269 42.5376C28.8403 42.3772 28.845 42.4162 28.6758 42.5491L18.7906 29.9681C16.3017 31.9236 14.6474 34.5841 13.6279 36.9629C12.5809 39.4057 11.9041 42.2434 11.9041 45.0868H27.9041ZM19.3398 42.9442C22.3159 44.9 25.7394 46.0134 28.5953 46.526L31.422 30.7776C30.1297 30.5457 28.8732 30.0636 28.1266 29.573L19.3398 42.9442ZM37.662 40.9811L38.0343 39.7579L22.7275 35.0993L22.3553 36.3225L37.662 40.9811ZM31.4446 29.4996C30.8436 29.419 30.1665 29.1081 29.7165 28.6548C29.5156 28.4524 29.3493 28.214 29.2245 27.9103C29.1011 27.6102 28.9677 27.1237 28.9677 26.3668H12.9677C12.9677 38.2011 21.9011 44.3627 29.3173 45.3576L31.4446 29.4996ZM28.9677 26.3668C28.9677 25.841 29.2026 25.0198 30.2586 24.1452C31.3317 23.2565 33.0885 22.5072 35.3268 22.5072V6.5072C24.4087 6.5072 12.9677 14.062 12.9677 26.3668H28.9677ZM35.3268 22.5072C38.3545 22.5072 40.3815 23.3428 41.4597 24.1825C42.3817 24.9007 42.8028 25.717 42.8028 26.8986H58.8028C58.8028 20.5284 55.9 15.149 51.2911 11.5594C46.8383 8.09137 41.1274 6.5072 35.3268 6.5072V22.5072ZM42.8028 26.8986C42.8028 27.268 42.6973 27.8111 42.4487 28.3258C42.1998 28.8413 41.9683 29.0058 41.9802 28.9979L50.7972 42.3493C56.2818 38.7274 58.8028 32.2792 58.8028 26.8986H42.8028ZM25.3732 19.6955L24.4159 21.1314L37.7287 30.0066L38.686 28.5707L25.3732 19.6955ZM27.7523 32.8476C31.963 34.7683 36.6309 35.508 39.9846 35.4281L39.6037 19.4327C39.1504 19.4435 38.3134 19.3924 37.2749 19.1883C36.2516 18.9872 35.2433 18.6786 34.3923 18.2905L27.7523 32.8476ZM47.7941 27.4304V25.8349H31.7941V27.4304H47.7941ZM39.5589 17.8384C39.5964 17.8373 39.421 17.8413 39.0151 17.7966C38.6401 17.7553 38.1837 17.6852 37.6953 17.5852C36.6217 17.3655 35.8508 17.0963 35.5403 16.9446L28.5189 31.3217C30.4951 32.2868 32.7025 32.8951 34.4874 33.2603C36.2503 33.6211 38.2821 33.8829 40.0293 33.8315L39.5589 17.8384ZM23.7777 39.3728L22.8204 40.8087L36.1332 49.6839L37.0905 48.248L23.7777 39.3728ZM26.0521 52.4762C31.7495 55.175 39.1244 55.6395 42.4532 55.6395V39.6395C41.2976 39.6395 39.4688 39.5442 37.547 39.2519C35.5497 38.9481 33.9245 38.501 32.9015 38.0164L26.0521 52.4762ZM50.4532 47.6395V46.0441H34.4532V47.6395H50.4532ZM42.4532 38.0441C41.5371 38.0441 39.8855 37.9301 38.0547 37.6306C36.1769 37.3233 34.6026 36.8994 33.6239 36.4739L27.2443 51.147C32.3044 53.347 39.052 54.0441 42.4532 54.0441V38.0441Z" fill="url(#paint0_linear_571_608)" mask="url(#path-1-outside-1_571_608)"/>
</g>
<defs>
<filter id="filter0_d_571_608" x="-16" y="-8" width="104" height="104" filterUnits="userSpaceOnUse" color-interpolation-filters="sRGB">
<feFlood flood-opacity="0" result="BackgroundImageFix"/>
<feColorMatrix in="SourceAlpha" type="matrix" values="0 0 0 0 0 0 0 0 0 0 0 0 0 0 0 0 0 0 127 0" result="hardAlpha"/>
<feOffset dy="8"/>
<feGaussianBlur stdDeviation="8"/>
<feComposite in2="hardAlpha" operator="out"/>
<feColorMatrix type="matrix" values="0 0 0 0 0 0 0 0 0 0 0 0 0 0 0 0 0 0 0.06 0"/>
<feBlend mode="normal" in2="BackgroundImageFix" result="effect1_dropShadow_571_608"/>
<feBlend mode="normal" in="SourceGraphic" in2="effect1_dropShadow_571_608" result="shape"/>
</filter>
<linearGradient id="paint0_linear_571_608" x1="24.0823" y1="-14.0949" x2="83.3084" y2="10.6758" gradientUnits="userSpaceOnUse">
<stop stop-color="#3A7BDF"/>
<stop offset="0.5625" stop-color="#8679A1"/>
<stop offset="1" stop-color="#ED774D"/>
</linearGradient>
</defs>
</svg>
