<svg width="390" height="490" viewBox="0 0 390 490" fill="none" xmlns="http://www.w3.org/2000/svg">
<path d="M283.896 239.69C309.094 255.163 325.45 286.107 325.45 317.935C325.45 383.802 280.36 425.356 200.789 425.356C115.913 425.356 63.75 394.412 63.75 317.935C63.75 290.969 77.0118 259.141 95.5784 244.553C111.051 254.72 130.501 261.351 147.742 264.446L150.836 254.278C114.587 249.416 72.5912 220.24 72.5912 162.33C72.5912 107.956 125.639 63.75 191.948 63.75C265.33 63.75 320.588 103.978 320.588 166.75C320.588 193.716 307.326 224.218 283.896 239.69ZM164.54 143.763L156.583 155.699C181.78 167.192 210.514 171.613 229.081 171.171V157.909C214.051 158.351 183.549 153.046 164.54 143.763ZM151.278 307.326L143.321 319.261C176.918 335.176 225.986 339.154 251.184 339.154V325.892C227.755 325.892 181.78 320.588 151.278 307.326Z" fill="#333333"/>
<path fill-rule="evenodd" clip-rule="evenodd" d="M74.0507 180.394C73.3165 176.014 72.8466 171.43 72.6702 166.641C72.6179 165.222 72.5914 163.785 72.5914 162.33C72.5914 125.707 96.6569 93.6964 132.631 76.6994C139.811 73.3074 147.464 70.5132 155.496 68.3997C166.969 65.3803 179.214 63.7501 191.948 63.7501C229.17 63.7501 261.729 74.1004 284.779 92.4933C287.609 94.7519 290.297 97.1317 292.831 99.6286C310.348 116.884 320.588 139.729 320.588 166.75C320.588 173.084 319.856 179.613 318.433 186.096C314.616 203.485 305.824 220.547 292.831 232.64C292.541 232.91 292.249 233.177 291.954 233.442C289.421 235.723 286.733 237.817 283.897 239.69C293.106 245.345 301.134 253.066 307.614 262.142C310.336 265.955 312.785 270.006 314.934 274.244C317.657 279.614 319.898 285.283 321.601 291.144C324.108 299.773 325.45 308.818 325.45 317.935C325.45 336.507 321.866 353.146 314.934 367.465C308.046 381.695 297.853 393.635 284.588 402.904C263.859 417.39 235.629 425.356 200.789 425.356C130.956 425.356 83.2672 404.408 68.5572 354.388C65.8324 345.122 64.2391 334.859 63.8463 323.547C63.7823 321.704 63.7501 319.834 63.7501 317.935C63.7501 312.387 64.3115 306.633 65.3651 300.866C66.2174 296.2 67.3918 291.525 68.8517 286.943C69.2279 285.763 69.6232 284.588 70.0367 283.421C75.0656 269.234 82.8049 256.22 92.1249 247.519C93.2536 246.465 94.4055 245.475 95.5785 244.553C100.364 247.698 105.531 250.505 110.895 252.973C111.479 253.242 112.064 253.506 112.652 253.766C124.133 258.853 136.414 262.413 147.742 264.446L150.836 254.279C150.424 254.223 150.012 254.165 149.598 254.103C140.729 252.783 131.551 250.014 122.755 245.732C121.003 244.879 119.266 243.966 117.549 242.992C112.551 240.157 107.727 236.808 103.214 232.934C90.8432 222.313 80.8045 207.74 75.882 188.957C75.1579 186.194 74.5445 183.34 74.0507 180.394ZM197.336 320.445C181.147 317.464 164.712 313.167 151.278 307.326L143.321 319.262C144.082 319.622 144.851 319.976 145.627 320.324C158.241 325.984 172.831 330.051 187.434 332.922C188.48 333.128 189.526 333.328 190.571 333.521C191.452 333.684 192.332 333.843 193.211 333.998C215.417 337.903 237.054 339.154 251.184 339.154V325.892C238.074 325.892 217.904 324.231 197.336 320.445ZM225.318 157.909C209.39 157.505 182.075 152.327 164.54 143.763L156.583 155.699C157.163 155.963 157.745 156.224 158.329 156.482C160.64 157.499 162.977 158.459 165.331 159.362C177.849 164.164 190.831 167.364 202.715 169.213C210.351 170.401 217.534 171.031 223.85 171.171C225.669 171.211 227.416 171.211 229.081 171.171V157.909C228.977 157.912 228.871 157.915 228.765 157.918C227.689 157.943 226.537 157.94 225.318 157.909ZM23.862 232.195C14.4551 212.418 8.84122 189.159 8.84122 162.33C8.84122 62.0289 102.204 0 191.948 0C239.687 0 286.525 13.0395 322.958 41.4152C360.635 70.7596 384.338 114.691 384.338 166.75C384.338 189.434 378.851 214.418 367.411 237.344C381.613 261.806 389.201 289.996 389.201 317.935C389.201 366.204 372.135 411.679 335.009 444.261C298.918 475.934 251.11 489.106 200.789 489.106C152.502 489.106 102.275 480.644 62.8095 451.783C19.6126 420.192 0 372.293 0 317.935C0 294.72 5.5307 271.5 14.1063 251.49C16.8037 245.196 20.0382 238.675 23.862 232.195Z" fill="white"/>
</svg>
