<svg width="243" height="243" viewBox="0 0 243 243" fill="none" xmlns="http://www.w3.org/2000/svg">
<path d="M165.786 119.322C178.253 126.977 186.345 142.288 186.345 158.036C186.345 190.625 164.036 211.185 124.666 211.185C82.6722 211.185 56.8633 195.874 56.8633 158.036C56.8633 144.694 63.4249 128.946 72.6111 121.728C80.2663 126.759 89.89 130.04 98.42 131.571L99.9511 126.54C82.016 124.134 61.2377 109.699 61.2377 81.0461C61.2377 54.1435 87.484 32.2715 120.292 32.2715C156.599 32.2715 183.939 52.175 183.939 83.2333C183.939 96.5753 177.378 111.667 165.786 119.322ZM106.731 71.8599L102.794 77.7653C115.261 83.4521 129.478 85.6393 138.664 85.4205V78.8589C131.228 79.0776 116.136 76.453 106.731 71.8599ZM100.17 152.786L96.2328 158.692C112.856 166.566 137.133 168.534 149.6 168.534V161.973C138.008 161.973 115.261 159.348 100.17 152.786Z" fill="url(#paint0_linear_786_3088)"/>
<path fill-rule="evenodd" clip-rule="evenodd" d="M61.9595 89.9826C61.5963 87.8154 61.3638 85.5477 61.2765 83.1782C61.2506 82.4761 61.2375 81.7651 61.2375 81.0451C61.2375 62.925 73.1445 47.087 90.9435 38.6774C94.4957 36.9991 98.2825 35.6166 102.256 34.5709C107.933 33.077 113.992 32.2704 120.292 32.2704C138.708 32.2704 154.818 37.3915 166.222 46.4918C167.623 47.6093 168.952 48.7868 170.206 50.0222C178.873 58.5599 183.939 69.8626 183.939 83.2323C183.939 86.366 183.577 89.5962 182.873 92.804C180.985 101.408 176.635 109.849 170.206 115.833C170.063 115.966 169.918 116.099 169.772 116.23C168.519 117.358 167.189 118.394 165.786 119.321C170.342 122.119 174.314 125.939 177.52 130.43C178.867 132.316 180.079 134.321 181.142 136.417C182.489 139.074 183.598 141.879 184.441 144.779C185.681 149.049 186.345 153.524 186.345 158.035C186.345 167.223 184.572 175.456 181.142 182.541C177.734 189.581 172.691 195.489 166.127 200.075C155.871 207.242 141.904 211.184 124.666 211.184C90.1146 211.184 66.5196 200.819 59.2415 176.07C57.8933 171.486 57.105 166.408 56.9107 160.811C56.879 159.899 56.8631 158.974 56.8631 158.035C56.8631 155.29 57.1409 152.443 57.6621 149.589C58.0838 147.28 58.6649 144.967 59.3872 142.701C59.5734 142.116 59.7689 141.535 59.9735 140.958C62.4617 133.938 66.2909 127.5 70.9022 123.195C71.4606 122.673 72.0305 122.183 72.6109 121.727C74.9789 123.283 77.5352 124.672 80.1892 125.893C80.4778 126.026 80.7676 126.157 81.0584 126.286C86.7386 128.802 92.8153 130.564 98.4199 131.569L99.9509 126.539C99.7471 126.512 99.5429 126.483 99.3383 126.452C94.9503 125.799 90.4091 124.429 86.0573 122.31C85.1902 121.888 84.3307 121.437 83.4814 120.955C81.0082 119.552 78.6217 117.895 76.3888 115.978C70.268 110.723 65.3011 103.513 62.8656 94.2195C62.5074 92.8524 62.2039 91.4403 61.9595 89.9826ZM122.958 159.276C114.948 157.801 106.816 155.675 100.17 152.785L96.2327 158.691C96.6091 158.869 96.9894 159.044 97.3734 159.217C103.615 162.017 110.833 164.029 118.058 165.45C118.576 165.552 119.093 165.65 119.611 165.746C120.046 165.827 120.482 165.905 120.917 165.982C131.904 167.914 142.609 168.533 149.6 168.533V161.972C143.114 161.972 133.134 161.15 122.958 159.276ZM136.803 78.8579C128.922 78.6577 115.407 76.0958 106.731 71.8588L102.794 77.7643C103.081 77.8952 103.369 78.0243 103.658 78.1515C104.801 78.6552 105.958 79.13 107.122 79.5767C113.316 81.9528 119.739 83.5359 125.619 84.4507C129.397 85.0386 132.951 85.3505 136.076 85.4195C136.976 85.4394 137.84 85.4391 138.664 85.4195V78.8579C138.613 78.8594 138.561 78.8608 138.508 78.862C137.976 78.8747 137.406 78.8732 136.803 78.8579ZM37.1275 115.612C32.4733 105.827 29.6957 94.3197 29.6957 81.0451C29.6957 31.4188 75.889 0.728516 120.292 0.728516C143.912 0.728516 167.086 7.18012 185.112 21.2197C203.754 35.7385 215.481 57.4744 215.481 83.2323C215.481 94.4555 212.766 106.817 207.106 118.16C214.133 130.263 217.887 144.211 217.887 158.035C217.887 181.917 209.444 204.417 191.075 220.537C173.218 236.209 149.564 242.726 124.666 242.726C100.775 242.726 75.9241 238.539 56.3977 224.259C35.0251 208.629 25.3213 184.929 25.3213 158.035C25.3213 146.548 28.0577 135.06 32.3007 125.159C33.6353 122.045 35.2357 118.819 37.1275 115.612Z" fill="white"/>
<defs>
<linearGradient id="paint0_linear_786_3088" x1="76.2181" y1="16.2853" x2="244.73" y2="143.801" gradientUnits="userSpaceOnUse">
<stop stop-color="#3A7BDF"/>
<stop offset="0.5625" stop-color="#8679A1"/>
<stop offset="1" stop-color="#ED774D"/>
</linearGradient>
</defs>
</svg>
